<svg  viewBox="0 0 422 361" fill="none" xmlns="http://www.w3.org/2000/svg">
<g clip-path="url(#clip0_831_15430)">
<path d="M0 211.889C0 95.3571 94.4679 0.88916 211 0.88916V0.88916C327.532 0.88916 422 95.3571 422 211.889V360.889H0L0 211.889Z" fill="#FF9900"/>
<rect x="210.82" y="-21.3821" width="48.8372" height="48.8372" transform="rotate(45 210.82 -21.3821)" fill="#FFDB80"/>
<rect x="210.82" y="48.0752" width="48.8372" height="48.8372" transform="rotate(45 210.82 48.0752)" fill="#FFDB80"/>
<rect x="210.82" y="117.532" width="48.8372" height="48.8372" transform="rotate(45 210.82 117.532)" fill="#FFDB80"/>
<rect x="210.82" y="186.99" width="48.8372" height="48.8372" transform="rotate(45 210.82 186.99)" fill="#FFDB80"/>
<rect x="210.82" y="256.447" width="48.8372" height="48.8372" transform="rotate(45 210.82 256.447)" fill="#FFDB80"/>
<rect x="210.82" y="325.905" width="48.8372" height="48.8372" transform="rotate(45 210.82 325.905)" fill="#FFDB80"/>
<g opacity="0.3">
<rect x="71.9052" y="-21.3821" width="48.8372" height="48.8372" transform="rotate(45 71.9052 -21.3821)" fill="#FFDB80"/>
<rect x="71.9052" y="48.0752" width="48.8372" height="48.8372" transform="rotate(45 71.9052 48.0752)" fill="#FFDB80"/>
<rect x="71.9052" y="117.532" width="48.8372" height="48.8372" transform="rotate(45 71.9052 117.532)" fill="#FFDB80"/>
<rect x="71.9052" y="186.99" width="48.8372" height="48.8372" transform="rotate(45 71.9052 186.99)" fill="#FFDB80"/>
<rect x="71.9052" y="256.447" width="48.8372" height="48.8372" transform="rotate(45 71.9052 256.447)" fill="#FFDB80"/>
<rect x="71.9052" y="325.905" width="48.8372" height="48.8372" transform="rotate(45 71.9052 325.905)" fill="#FFDB80"/>
</g>
<g opacity="0.3">
<rect x="349.734" y="-21.3821" width="48.8372" height="48.8372" transform="rotate(45 349.734 -21.3821)" fill="#FFDB80"/>
<rect x="349.734" y="48.0752" width="48.8372" height="48.8372" transform="rotate(45 349.734 48.0752)" fill="#FFDB80"/>
<rect x="349.734" y="117.532" width="48.8372" height="48.8372" transform="rotate(45 349.734 117.532)" fill="#FFDB80"/>
<rect x="349.734" y="186.99" width="48.8372" height="48.8372" transform="rotate(45 349.734 186.99)" fill="#FFDB80"/>
<rect x="349.734" y="256.447" width="48.8372" height="48.8372" transform="rotate(45 349.734 256.447)" fill="#FFDB80"/>
<rect x="349.734" y="325.905" width="48.8372" height="48.8372" transform="rotate(45 349.734 325.905)" fill="#FFDB80"/>
</g>
<g opacity="0.3">
<rect x="280.277" y="-56.1108" width="48.8372" height="48.8372" transform="rotate(45 280.277 -56.1108)" fill="#FFCA99"/>
<rect x="280.277" y="13.3464" width="48.8372" height="48.8372" transform="rotate(45 280.277 13.3464)" fill="#FFCA99"/>
<rect x="280.277" y="82.8037" width="48.8372" height="48.8372" transform="rotate(45 280.277 82.8037)" fill="#FFCA99"/>
<rect x="280.277" y="152.261" width="48.8372" height="48.8372" transform="rotate(45 280.277 152.261)" fill="#FFCA99"/>
<rect x="280.277" y="221.719" width="48.8372" height="48.8372" transform="rotate(45 280.277 221.719)" fill="#FFCA99"/>
<rect x="280.277" y="291.176" width="48.8372" height="48.8372" transform="rotate(45 280.277 291.176)" fill="#FFCA99"/>
<rect x="280.277" y="358.463" width="48.8372" height="48.8372" transform="rotate(45 280.277 358.463)" fill="#FFCA99"/>
</g>
<g opacity="0.3">
<rect x="419.192" y="-56.1108" width="48.8372" height="48.8372" transform="rotate(45 419.192 -56.1108)" fill="#FFCA99"/>
<rect x="419.192" y="13.3464" width="48.8372" height="48.8372" transform="rotate(45 419.192 13.3464)" fill="#FFCA99"/>
<rect x="419.192" y="82.8037" width="48.8372" height="48.8372" transform="rotate(45 419.192 82.8037)" fill="#FFCA99"/>
<rect x="419.192" y="152.261" width="48.8372" height="48.8372" transform="rotate(45 419.192 152.261)" fill="#FFCA99"/>
<rect x="419.192" y="221.719" width="48.8372" height="48.8372" transform="rotate(45 419.192 221.719)" fill="#FFCA99"/>
<rect x="419.192" y="291.176" width="48.8372" height="48.8372" transform="rotate(45 419.192 291.176)" fill="#FFCA99"/>
<rect x="419.192" y="358.463" width="48.8372" height="48.8372" transform="rotate(45 419.192 358.463)" fill="#FFCA99"/>
</g>
<g opacity="0.3">
<rect x="141.362" y="-56.1108" width="48.8372" height="48.8372" transform="rotate(45 141.362 -56.1108)" fill="#FFCA99"/>
<rect x="141.362" y="13.3464" width="48.8372" height="48.8372" transform="rotate(45 141.362 13.3464)" fill="#FFCA99"/>
<rect x="141.362" y="82.8037" width="48.8372" height="48.8372" transform="rotate(45 141.362 82.8037)" fill="#FFCA99"/>
<rect x="141.362" y="152.261" width="48.8372" height="48.8372" transform="rotate(45 141.362 152.261)" fill="#FFCA99"/>
<rect x="141.362" y="221.719" width="48.8372" height="48.8372" transform="rotate(45 141.362 221.719)" fill="#FFCA99"/>
<rect x="141.362" y="291.176" width="48.8372" height="48.8372" transform="rotate(45 141.362 291.176)" fill="#FFCA99"/>
<rect x="141.362" y="358.463" width="48.8372" height="48.8372" transform="rotate(45 141.362 358.463)" fill="#FFCA99"/>
</g>
<g opacity="0.3">
<rect x="2.44788" y="-56.1108" width="48.8372" height="48.8372" transform="rotate(45 2.44788 -56.1108)" fill="#FFCA99"/>
<rect x="2.44788" y="13.3464" width="48.8372" height="48.8372" transform="rotate(45 2.44788 13.3464)" fill="#FFCA99"/>
<rect x="2.44788" y="82.8037" width="48.8372" height="48.8372" transform="rotate(45 2.44788 82.8037)" fill="#FFCA99"/>
<rect x="2.44788" y="152.261" width="48.8372" height="48.8372" transform="rotate(45 2.44788 152.261)" fill="#FFCA99"/>
<rect x="2.44788" y="221.719" width="48.8372" height="48.8372" transform="rotate(45 2.44788 221.719)" fill="#FFCA99"/>
<rect x="2.44788" y="291.176" width="48.8372" height="48.8372" transform="rotate(45 2.44788 291.176)" fill="#FFCA99"/>
<rect x="2.44788" y="358.463" width="48.8372" height="48.8372" transform="rotate(45 2.44788 358.463)" fill="#FFCA99"/>
</g>
</g>
<defs>
<clipPath id="clip0_831_15430">
<path d="M0 211.889C0 95.3571 94.4679 0.88916 211 0.88916V0.88916C327.532 0.88916 422 95.3571 422 211.889V360.889H0L0 211.889Z" fill="white"/>
</clipPath>
</defs>
</svg>
