<svg width="107" height="289" viewBox="0 0 107 289" fill="none" xmlns="http://www.w3.org/2000/svg">
<path d="M61.1569 132.579C65.0479 136.781 69.2016 141.639 68.9553 147.367C68.7091 153.095 60.9106 157.936 57.1016 153.653C57.4464 150.6 61.5509 149.156 64.3419 150.452C67.1329 151.749 68.7091 154.752 69.6285 157.69C72.4031 166.471 70.9911 176.45 65.918 184.131C64.2926 186.593 62.1419 188.923 59.2852 189.711C56.4449 190.499 52.8659 189.12 52.1106 186.264C51.1584 182.637 55.542 179.322 59.2031 180.11C62.8643 180.914 65.3762 184.36 66.6404 187.889C70.8434 199.575 65.0314 212.18 60.9434 223.915C56.8554 235.649 55.427 250.864 65.2613 258.463C67.1822 259.956 69.612 261.04 72.009 260.662C74.406 260.285 76.606 258.02 76.2284 255.623C75.6538 251.914 69.8419 251.471 67.3299 254.261C64.818 257.035 64.7359 261.187 64.8016 264.929C64.9165 272.709 65.0479 280.505 65.1628 288.284" stroke="white" stroke-width="1.01" stroke-linecap="round" stroke-linejoin="round"/>
<path d="M72.4827 135.264L53.8852 135.295L59.281 115.93C60.9597 115.457 62.1851 115.331 63.44 115.203L63.4445 115.203C64.6565 115.079 65.8961 114.952 67.5504 114.505C68.4145 117.808 69.6409 122.968 70.672 127.393C71.2136 129.718 71.7008 131.838 72.0527 133.377C72.2286 134.146 72.3706 134.771 72.4687 135.202L72.4827 135.264Z" fill="#00188A" stroke="white"/>
<path d="M92.1761 100.518L92.1766 100.517C100.462 87.6495 105.351 70.6506 105.571 53.3308H105.556L105.56 52.8271C105.674 37.1635 99.8599 22.9268 89.3691 13.2673C80.4731 5.08819 68.1887 0.189702 53.2381 0.515275L92.1761 100.518ZM92.1761 100.518C88.2043 106.714 83.1421 110.282 77.633 114.164L77.4673 114.281C71.0123 118.829 64.0858 123.085 56.2315 123.085C41.8791 123.085 28.05 112.84 17.7756 98.8488C7.50988 84.8695 0.894531 67.2822 0.894531 52.8308C0.894531 35.9703 10.1646 21.6271 22.2283 12.0934M92.1761 100.518L22.2283 12.0934M22.2283 12.0934C30.8032 5.33029 39.2878 0.824135 53.238 0.515279L22.2283 12.0934Z" fill="#00188A" stroke="white"/>
<path d="M36.1031 16.3555L36.1024 16.3549C34.2432 14.9905 31.4996 15.0346 28.4649 16.4054C25.446 17.7691 22.2471 20.4067 19.6123 24.01C16.9777 27.6133 15.4374 31.4598 15.0571 34.7502C14.6749 38.0575 15.4685 40.6887 17.3366 42.0543C18.289 42.7505 19.132 42.9448 19.9381 42.8038C20.7686 42.6586 21.6381 42.1445 22.5997 41.2627C24.2331 39.7649 25.9771 37.3598 28.1028 34.4282C28.4978 33.8835 28.9059 33.3207 29.3289 32.7421L36.1031 16.3555ZM36.1031 16.3555C37.0037 17.0138 37.371 17.8472 37.3594 18.8673M36.1031 16.3555L37.3594 18.8673M37.3594 18.8673C37.3474 19.9243 36.9258 21.1963 36.1785 22.6609M37.3594 18.8673L36.1785 22.6609M36.1785 22.6609C34.9158 25.1362 32.8159 27.9932 30.5755 31.0413M36.1785 22.6609L30.5755 31.0413M30.5755 31.0413C30.1633 31.6022 29.7463 32.1695 29.3289 32.7421L30.5755 31.0413Z" fill="#00188A" stroke="white"/>
<path d="M80.2178 12.5218C87.2282 17.7081 93.0565 24.4537 97.1938 32.1347" stroke="white" stroke-linecap="round" stroke-linejoin="round"/>
<path d="M98.6875 35.9094C100.395 39.6679 101.511 43.7054 101.987 47.8085" stroke="white" stroke-linecap="round" stroke-linejoin="round"/>
<path d="M72.0088 11.2907C75.6371 13.7526 78.9864 16.6084 81.9908 19.7924" stroke="white" stroke-linecap="round" stroke-linejoin="round"/>
</svg>
